<?xml version="1.0" encoding="UTF-8"?>
<svg xmlns="http://www.w3.org/2000/svg" xmlns:xlink="http://www.w3.org/1999/xlink" width="42pt" height="28pt" viewBox="0 0 42 28" version="1.1">
<g id="surface1">
<rect x="0" y="0" width="42" height="28" style="fill:rgb(7.843137%,36.862745%,43.921569%);fill-opacity:1;stroke:none;"/>
<path style=" stroke:none;fill-rule:nonzero;fill:rgb(100%,100%,100%);fill-opacity:1;" d="M 16.648438 13.847656 L 14.464844 10.070312 L 16.152344 10.070312 L 17.515625 12.507812 L 19.421875 12.507812 L 18.429688 10.839844 L 21.007812 6.363281 L 23.585938 10.839844 L 22.59375 12.507812 L 24.5 12.507812 L 25.863281 10.070312 L 27.550781 10.070312 L 25.367188 13.847656 Z M 21.007812 9.203125 L 20.066406 10.839844 L 21.007812 12.421875 L 21.949219 10.839844 Z M 21.007812 9.203125 "/>
<path style=" stroke:none;fill-rule:nonzero;fill:rgb(100%,100%,100%);fill-opacity:1;" d="M 16.648438 14.152344 L 14.464844 17.929688 L 16.152344 17.929688 L 17.515625 15.492188 L 19.421875 15.492188 L 18.429688 17.160156 L 21.007812 21.636719 L 23.585938 17.160156 L 22.59375 15.492188 L 24.5 15.492188 L 25.863281 17.929688 L 27.550781 17.929688 L 25.367188 14.152344 Z M 21.007812 18.796875 L 20.066406 17.160156 L 21.007812 15.578125 L 21.949219 17.160156 Z M 21.007812 18.796875 "/>
</g>
</svg>
